<mxfile host="app.diagrams.net" modified="2021-04-27T10:04:11.416Z" agent="5.0 (Windows NT 10.0; Win64; x64) AppleWebKit/537.36 (KHTML, like Gecko) Chrome/90.0.4430.85 Safari/537.36" etag="FeHwtmmPeQJ0mSPtzavv" version="14.6.6" type="github">
  <diagram id="goOU9rfnh4pGOHe2Q5OS" name="Page-1">
    <mxGraphModel dx="1038" dy="580" grid="1" gridSize="10" guides="1" tooltips="1" connect="1" arrows="1" fold="1" page="1" pageScale="1" pageWidth="850" pageHeight="1100" math="0" shadow="0">
      <root>
        <mxCell id="0" />
        <mxCell id="1" parent="0" />
        <mxCell id="1edAOxiHHCT8dDfQ0NAg-20" style="edgeStyle=orthogonalEdgeStyle;rounded=0;orthogonalLoop=1;jettySize=auto;html=1;exitX=1;exitY=0;exitDx=0;exitDy=0;entryX=0;entryY=0;entryDx=0;entryDy=0;fillColor=#dae8fc;strokeColor=#6c8ebf;" edge="1" parent="1" source="1edAOxiHHCT8dDfQ0NAg-1" target="1edAOxiHHCT8dDfQ0NAg-4">
          <mxGeometry relative="1" as="geometry" />
        </mxCell>
        <mxCell id="1edAOxiHHCT8dDfQ0NAg-25" style="edgeStyle=orthogonalEdgeStyle;rounded=0;orthogonalLoop=1;jettySize=auto;html=1;exitX=0;exitY=0.5;exitDx=0;exitDy=0;entryX=0.28;entryY=1.012;entryDx=0;entryDy=0;entryPerimeter=0;fillColor=#dae8fc;strokeColor=#6c8ebf;" edge="1" parent="1" source="1edAOxiHHCT8dDfQ0NAg-1" target="1edAOxiHHCT8dDfQ0NAg-3">
          <mxGeometry relative="1" as="geometry" />
        </mxCell>
        <mxCell id="1edAOxiHHCT8dDfQ0NAg-1" value="&lt;b&gt;&lt;u&gt;&lt;font style=&quot;font-size: 17px&quot;&gt;City 1&lt;/font&gt;&lt;/u&gt;&lt;/b&gt;" style="ellipse;whiteSpace=wrap;html=1;fillColor=#dae8fc;strokeColor=#6c8ebf;" vertex="1" parent="1">
          <mxGeometry x="80" y="220" width="90" height="50" as="geometry" />
        </mxCell>
        <mxCell id="1edAOxiHHCT8dDfQ0NAg-23" style="edgeStyle=orthogonalEdgeStyle;rounded=0;orthogonalLoop=1;jettySize=auto;html=1;exitX=1;exitY=1;exitDx=0;exitDy=0;entryX=1;entryY=0.5;entryDx=0;entryDy=0;fillColor=#f8cecc;strokeColor=#b85450;" edge="1" parent="1" source="1edAOxiHHCT8dDfQ0NAg-3" target="1edAOxiHHCT8dDfQ0NAg-4">
          <mxGeometry relative="1" as="geometry">
            <Array as="points">
              <mxPoint x="600" y="433" />
              <mxPoint x="600" y="250" />
              <mxPoint x="550" y="250" />
            </Array>
          </mxGeometry>
        </mxCell>
        <mxCell id="1edAOxiHHCT8dDfQ0NAg-24" style="edgeStyle=orthogonalEdgeStyle;rounded=0;orthogonalLoop=1;jettySize=auto;html=1;exitX=0;exitY=0.5;exitDx=0;exitDy=0;entryX=0.5;entryY=1;entryDx=0;entryDy=0;fillColor=#f8cecc;strokeColor=#b85450;" edge="1" parent="1" source="1edAOxiHHCT8dDfQ0NAg-3" target="1edAOxiHHCT8dDfQ0NAg-1">
          <mxGeometry relative="1" as="geometry" />
        </mxCell>
        <mxCell id="1edAOxiHHCT8dDfQ0NAg-3" value="&lt;b&gt;&lt;u&gt;&lt;font style=&quot;font-size: 17px&quot;&gt;City 3&lt;/font&gt;&lt;/u&gt;&lt;/b&gt;" style="ellipse;whiteSpace=wrap;html=1;fillColor=#f8cecc;strokeColor=#b85450;" vertex="1" parent="1">
          <mxGeometry x="260" y="390" width="90" height="50" as="geometry" />
        </mxCell>
        <mxCell id="1edAOxiHHCT8dDfQ0NAg-21" style="edgeStyle=orthogonalEdgeStyle;rounded=0;orthogonalLoop=1;jettySize=auto;html=1;exitX=0;exitY=1;exitDx=0;exitDy=0;entryX=1;entryY=1;entryDx=0;entryDy=0;fillColor=#d5e8d4;strokeColor=#82b366;" edge="1" parent="1" source="1edAOxiHHCT8dDfQ0NAg-4" target="1edAOxiHHCT8dDfQ0NAg-1">
          <mxGeometry relative="1" as="geometry" />
        </mxCell>
        <mxCell id="1edAOxiHHCT8dDfQ0NAg-22" style="edgeStyle=orthogonalEdgeStyle;rounded=0;orthogonalLoop=1;jettySize=auto;html=1;exitX=0.5;exitY=1;exitDx=0;exitDy=0;entryX=1;entryY=0.5;entryDx=0;entryDy=0;fillColor=#d5e8d4;strokeColor=#82b366;" edge="1" parent="1" source="1edAOxiHHCT8dDfQ0NAg-4" target="1edAOxiHHCT8dDfQ0NAg-3">
          <mxGeometry relative="1" as="geometry" />
        </mxCell>
        <mxCell id="1edAOxiHHCT8dDfQ0NAg-4" value="&lt;b&gt;&lt;u&gt;&lt;font style=&quot;font-size: 17px&quot;&gt;City 2&lt;/font&gt;&lt;/u&gt;&lt;/b&gt;" style="ellipse;whiteSpace=wrap;html=1;fillColor=#d5e8d4;strokeColor=#82b366;" vertex="1" parent="1">
          <mxGeometry x="460" y="220" width="90" height="50" as="geometry" />
        </mxCell>
        <mxCell id="1edAOxiHHCT8dDfQ0NAg-26" value="c&lt;sub&gt;1,2&lt;/sub&gt;" style="text;html=1;align=center;verticalAlign=middle;resizable=0;points=[];autosize=1;strokeColor=#6c8ebf;fillColor=#dae8fc;" vertex="1" parent="1">
          <mxGeometry x="290" y="200" width="40" height="20" as="geometry" />
        </mxCell>
        <mxCell id="1edAOxiHHCT8dDfQ0NAg-27" value="c&lt;sub&gt;1,3&lt;/sub&gt;" style="text;html=1;align=center;verticalAlign=middle;resizable=0;points=[];autosize=1;strokeColor=#6c8ebf;fillColor=#dae8fc;" vertex="1" parent="1">
          <mxGeometry x="10" y="350" width="40" height="20" as="geometry" />
        </mxCell>
        <mxCell id="1edAOxiHHCT8dDfQ0NAg-28" value="c&lt;sub&gt;3,1&lt;/sub&gt;" style="text;html=1;align=center;verticalAlign=middle;resizable=0;points=[];autosize=1;strokeColor=#b85450;fillColor=#f8cecc;" vertex="1" parent="1">
          <mxGeometry x="130" y="350" width="40" height="20" as="geometry" />
        </mxCell>
        <mxCell id="1edAOxiHHCT8dDfQ0NAg-29" value="c&lt;sub&gt;2,1&lt;/sub&gt;" style="text;html=1;align=center;verticalAlign=middle;resizable=0;points=[];autosize=1;strokeColor=#82b366;fillColor=#d5e8d4;" vertex="1" parent="1">
          <mxGeometry x="290" y="270" width="40" height="20" as="geometry" />
        </mxCell>
        <mxCell id="1edAOxiHHCT8dDfQ0NAg-30" value="c&lt;sub&gt;2,3&lt;/sub&gt;" style="text;html=1;align=center;verticalAlign=middle;resizable=0;points=[];autosize=1;strokeColor=#82b366;fillColor=#d5e8d4;" vertex="1" parent="1">
          <mxGeometry x="450" y="330" width="40" height="20" as="geometry" />
        </mxCell>
        <mxCell id="1edAOxiHHCT8dDfQ0NAg-31" value="c&lt;sub&gt;3,2&lt;/sub&gt;" style="text;html=1;align=center;verticalAlign=middle;resizable=0;points=[];autosize=1;strokeColor=#b85450;fillColor=#f8cecc;" vertex="1" parent="1">
          <mxGeometry x="550" y="330" width="40" height="20" as="geometry" />
        </mxCell>
        <mxCell id="1edAOxiHHCT8dDfQ0NAg-32" value="Salesman" style="shape=umlActor;verticalLabelPosition=bottom;verticalAlign=top;html=1;outlineConnect=0;" vertex="1" parent="1">
          <mxGeometry x="110" y="140" width="30" height="60" as="geometry" />
        </mxCell>
      </root>
    </mxGraphModel>
  </diagram>
</mxfile>
